<?xml version="1.0" ?><!DOCTYPE svg  PUBLIC '-//W3C//DTD SVG 1.1//EN'  'http://www.w3.org/Graphics/SVG/1.1/DTD/svg11.dtd'><svg enable-background="new 0 0 24 24" height="24px" id="Layer_1" version="1.1" viewBox="0 0 24 24" width="24px" xml:space="preserve" xmlns="http://www.w3.org/2000/svg" xmlns:xlink="http://www.w3.org/1999/xlink"><g><g><path d="M23,9.3h-7.3c-0.3,0-0.5-0.2-0.5-0.5V5.2c0-0.3,0.2-0.5,0.5-0.5H23c0.3,0,0.5,0.2,0.5,0.5v3.7C23.5,9.1,23.3,9.3,23,9.3z     M16.2,8.3h6.3V5.7h-6.3V8.3z"/></g><g><path d="M8.3,19.3H4.7c-0.3,0-0.5-0.2-0.5-0.5V9.3H1c-0.3,0-0.5-0.2-0.5-0.5V5.2c0-0.3,0.2-0.5,0.5-0.5h11c0.3,0,0.5,0.2,0.5,0.5    v3.7c0,0.3-0.2,0.5-0.5,0.5H8.8v9.5C8.8,19.1,8.6,19.3,8.3,19.3z M5.2,18.3h2.7V8.8c0-0.3,0.2-0.5,0.5-0.5h3.2V5.7h-10v2.7h3.2    c0.3,0,0.5,0.2,0.5,0.5V18.3z"/></g><g><path d="M23,19.3H12c-0.3,0-0.5-0.2-0.5-0.5v-10c0-0.3,0.2-0.5,0.5-0.5h3.7c0.3,0,0.5,0.2,0.5,0.5v5.8H23c0.3,0,0.5,0.2,0.5,0.5    v3.7C23.5,19.1,23.3,19.3,23,19.3z M12.5,18.3h10v-2.7h-6.8c-0.3,0-0.5-0.2-0.5-0.5V9.3h-2.7V18.3z"/></g></g></svg>